<svg xmlns="http://www.w3.org/2000/svg" width="1150" height="580"><style>.t{font-family:Arial,'Noto Sans SC',sans-serif;fill:#102a43}.h{font-size:28px;font-weight:700}.b{font-size:18px;font-weight:700}.s{font-size:15px}.n{fill:#fff;stroke:#7893b5;stroke-width:2}.bad{fill:#fff0f0;stroke:#c84c4c;stroke-width:2}.g{fill:#eef9f1;stroke:#4d9965;stroke-width:2}.l{stroke:#6d8195;stroke-width:4;fill:none}</style><rect width="1150" height="580" fill="#f8fbff"/><text x="45" y="48" class="t h">Yield Loop｜统计 → Pareto → Root Cause → CAPA → Rule Feedback</text><rect x="70" y="150" width="190" height="110" rx="14" class="n"/><text x="165" y="190" text-anchor="middle" class="t b">Pilot / Production</text><text x="165" y="222" text-anchor="middle" class="t s">FPY · Rework · Scrap</text><rect x="335" y="150" width="190" height="110" rx="14" class="bad"/><text x="430" y="190" text-anchor="middle" class="t b">Defect Taxonomy</text><text x="430" y="222" text-anchor="middle" class="t s">Open · Bridge · Boot...</text><rect x="600" y="150" width="190" height="110" rx="14" class="n"/><text x="695" y="190" text-anchor="middle" class="t b">Pareto</text><text x="695" y="222" text-anchor="middle" class="t s">Top contributors</text><rect x="865" y="150" width="190" height="110" rx="14" class="g"/><text x="960" y="190" text-anchor="middle" class="t b">Root Cause / CAPA</text><text x="960" y="222" text-anchor="middle" class="t s">Evidence · Action</text><path d="M260 205 H335 M525 205 H600 M790 205 H865" class="l"/><rect x="370" y="365" width="410" height="105" rx="14" class="g"/><text x="575" y="405" text-anchor="middle" class="t b">Update Design / Process / Test Rule</text><text x="575" y="438" text-anchor="middle" class="t s">把量产证据写回下一版 Checklist，而不是只返修。</text><path d="M960 260 C960 330 780 330 740 365 M410 365 C300 330 165 330 165 260" class="l"/></svg>