<svg xmlns="http://www.w3.org/2000/svg" viewBox="0 0 1000 430"><style>.t{font:22px sans-serif;fill:#1f2937}.s{font:18px sans-serif;fill:#374151}.sig{fill:#d33}.plane{fill:#40566f}.die{fill:#f5e8c8}.bad{fill:#fee2e2;stroke:#dc2626;stroke-width:2}.good{fill:#ecfdf5;stroke:#059669;stroke-width:2}</style><rect width="1000" height="430" fill="#fff"/><text x="45" y="45" class="t">阻抗不连续：不是“线宽不好看”，而是局部 L′ / C′ 被改变</text><rect x="70" y="85" width="860" height="85" class="die"/><rect x="70" y="170" width="860" height="30" class="plane"/><rect x="90" y="112" width="260" height="18" rx="8" class="sig"/><rect x="350" y="100" width="165" height="42" rx="8" class="sig"/><rect x="515" y="112" width="170" height="18" rx="8" class="sig"/><circle cx="710" cy="121" r="34" fill="#d33"/><rect x="744" y="112" width="155" height="18" rx="8" class="sig"/><rect x="315" y="220" width="230" height="85" rx="12" class="bad"/><text x="345" y="255" class="t">突然变宽</text><text x="340" y="285" class="s">局部 C′↑ → Z₀ 倾向↓</text><line x1="430" y1="220" x2="430" y2="145" stroke="#dc2626" stroke-width="3"/><rect x="645" y="220" width="250" height="85" rx="12" class="bad"/><text x="690" y="255" class="t">大 Pad / Via</text><text x="675" y="285" class="s">形成额外 RLC transition</text><line x1="765" y1="220" x2="720" y2="155" stroke="#dc2626" stroke-width="3"/><rect x="115" y="330" width="770" height="58" rx="12" class="good"/><text x="150" y="367" class="t">Review 问法：这一区域相对前后均匀线，电气环境发生了什么变化？</text></svg>